<svg xmlns="http://www.w3.org/2000/svg" width="942" height="766" viewBox="0 0 942 766" fill="none">
  <path d="M471 429.5C659.384 429.5 812.1 368.521 812.1 293.3C812.1 218.079 659.384 157.1 471 157.1C282.616 157.1 129.9 218.079 129.9 293.3C129.9 368.521 282.616 429.5 471 429.5Z" fill="#D40E00"/>
  <path d="M503.6 342C503.6 412 438.5 412 438.5 342C270.2 354.9 130 432.2 130 540C130 647.8 287.7 751.3 471.1 751.3C654.5 751.3 812.309 662 812.2 540C812.091 418 681.4 349.2 503.6 342Z" fill="white"/>
  <path d="M941.5 300.8C941.4 300.8 941.3 300.8 941.2 300.8C881.4 300.5 833.3 233.6 833.8 151.4C834.2 79.6 871.5 19.9 920.8 6.19997C705.8 14.7 526.4 162.7 470.9 362.5C415.8 155.2 227.5 1.89998 2.70003 0.599976V3.19997C62.4 3.69997 110.3 70.5 109.9 152.6C109.4 234.7 60.7 301 1.00003 300.8L0.600033 380C0.600033 383 0.800033 385.9 1.00003 388.8H0.600033C-0.499967 595 165.7 763.1 371.9 764.2L565.5 765.3C771.7 766.4 939.8 600.2 940.9 394H940.5C940.8 391.1 941 388.2 941 385.2L941.5 300.8ZM389.3 541.6C376.7 622.8 318.6 681.2 259.5 672C200.4 662.8 162.8 589.5 175.4 508.3C188 427.1 246.1 368.7 305.2 377.9C364.3 387.1 402 460.4 389.3 541.6ZM684.1 672C625 681.2 566.9 622.8 554.3 541.6C541.7 460.4 579.3 387.1 638.4 377.9C697.5 368.7 755.6 427.1 768.2 508.3C780.8 589.6 743.1 662.8 684.1 672Z" fill="#F33427"/>
</svg>