<svg width="50" height="49" viewBox="0 0 50 49" fill="none" xmlns="http://www.w3.org/2000/svg">
<path id="Vector" d="M24.8107 0.852051C11.3607 0.852051 0.455811 11.7569 0.455811 25.2069C0.455811 36.6192 8.31431 46.1683 18.9087 48.8108C18.795 48.482 18.722 48.1005 18.722 47.6276V43.4649C17.7336 43.4649 16.0774 43.4649 15.6614 43.4649C13.9951 43.4649 12.5135 42.7485 11.795 41.4171C10.9974 39.9375 10.8594 37.6746 8.88259 36.2904C8.29605 35.8297 8.74255 35.304 9.4184 35.3751C10.6666 35.7282 11.7017 36.5847 12.6759 37.8552C13.646 39.1278 14.1027 39.4159 15.9151 39.4159C16.7939 39.4159 18.109 39.3652 19.3471 39.1704C20.0128 37.4797 21.1635 35.9231 22.57 35.1883C14.4599 34.3542 10.5895 30.3194 10.5895 24.8416C10.5895 22.4832 11.5941 20.202 13.301 18.28C12.7408 16.3722 12.0365 12.4815 13.5161 10.9999C17.1653 10.9999 19.3714 13.3664 19.9011 14.0057C21.7196 13.3826 23.7167 13.0295 25.8153 13.0295C27.9179 13.0295 29.9232 13.3826 31.7457 14.0098C32.2693 13.3745 34.4775 10.9999 38.1348 10.9999C39.6205 12.4835 38.9081 16.3905 38.3418 18.2942C40.0385 20.2121 41.0371 22.4873 41.0371 24.8416C41.0371 30.3153 37.1728 34.3481 29.0748 35.1863C31.3033 36.3493 32.929 39.6169 32.929 42.0787V47.6276C32.929 47.8387 32.8823 47.9909 32.8579 48.1715C42.3482 44.8451 49.1655 35.8338 49.1655 25.2069C49.1655 11.7569 38.2606 0.852051 24.8107 0.852051Z" fill="white"/>
</svg>
