<svg width="49" height="49" viewBox="0 0 49 49" fill="none" xmlns="http://www.w3.org/2000/svg">
<path id="Exclude" fill-rule="evenodd" clip-rule="evenodd" d="M48.7098 24.3549C48.7098 37.8059 37.8059 48.7098 24.3549 48.7098C10.9039 48.7098 0 37.8059 0 24.3549C0 10.9039 10.9039 0 24.3549 0C37.8059 0 48.7098 10.9039 48.7098 24.3549ZM13.9608 21.6489V13.5439H10.1656V34.5439H13.9568L13.9608 27.1439C13.9568 25.9019 14.0728 24.9637 14.3048 24.3284C14.5328 23.694 14.8926 23.2195 15.3939 22.9018C15.8844 22.5861 16.4486 22.4272 17.0777 22.4272C17.6271 22.4272 18.0822 22.5503 18.4479 22.7995C18.8057 23.0338 19.0743 23.3838 19.2097 23.7923C19.3542 24.2092 19.423 25.1901 19.423 26.7388V34.5439H23.2191V25.8781C23.2191 24.5517 23.1542 23.5739 23.0245 22.9454C22.8937 22.314 22.6519 21.7412 22.2941 21.218C21.9383 20.6998 21.4115 20.2729 20.7067 19.9403C20.0039 19.6058 19.2205 19.437 18.3457 19.437C16.6472 19.437 15.1826 20.1776 13.9608 21.6489ZM28.9083 21.6489V13.5439H25.1171V34.5439H28.9083V27.1439C28.9083 25.9019 29.0243 24.9637 29.2524 24.3284C29.4833 23.694 29.8451 23.2195 30.3395 22.9018C30.831 22.5861 31.3952 22.4272 32.0233 22.4272C32.5727 22.4272 33.0318 22.5503 33.3935 22.7995C33.7524 23.0331 34.0218 23.3833 34.1572 23.7923C34.3017 24.2092 34.3735 25.1901 34.3735 26.7388V34.5439H38.1656V25.8781C38.1656 24.5517 38.1008 23.5739 37.97 22.9454C37.8453 22.3255 37.5968 21.7378 37.2397 21.218C36.8859 20.6998 36.359 20.2729 35.6572 19.9403C34.9534 19.6058 34.1641 19.437 33.2922 19.437C31.5947 19.437 30.1311 20.1776 28.9083 21.6489Z" fill="white"/>
</svg>
