<svg width="49" height="50" viewBox="0 0 49 50" fill="none" xmlns="http://www.w3.org/2000/svg">
<path id="Vector" d="M24.5087 0.477051C37.96 0.477051 48.8636 11.3806 48.8636 24.8319C48.8636 38.2832 37.96 49.1868 24.5087 49.1868C11.0574 49.1868 0.153809 38.2832 0.153809 24.8319C0.153809 11.3806 11.0574 0.477051 24.5087 0.477051ZM32.9101 34.7592C33.358 33.3847 35.4567 19.6867 35.7162 16.9875C35.7945 16.1701 35.5362 15.6268 35.03 15.3844C34.418 15.09 33.5115 15.2372 32.46 15.6163C31.0178 16.1362 12.5801 23.9647 11.5148 24.4179C10.5046 24.8468 9.5495 25.3148 9.5495 25.9925C9.5495 26.469 9.83223 26.7369 10.6116 27.0154C11.4227 27.3045 13.4653 27.9239 14.6714 28.2564C15.8331 28.5773 17.1556 28.2988 17.8969 27.8382C18.6826 27.35 27.75 21.2825 28.4012 20.7509C29.0514 20.2193 29.5703 20.9002 29.0387 21.4328C28.5071 21.9644 22.2829 28.0055 21.4622 28.842C20.4658 29.8575 21.1731 30.9101 21.8413 31.3315C22.6048 31.8123 28.0952 35.4951 28.9222 36.086C29.7492 36.6769 30.5879 36.9448 31.3556 36.9448C32.1233 36.9448 32.5278 35.9335 32.9101 34.7592Z" fill="white"/>
</svg>
