<svg width="42" height="42" viewBox="0 0 42 42" fill="none" xmlns="http://www.w3.org/2000/svg">
<path id="Vector" d="M37.3333 0H4.66667C2.08833 0 0 2.08833 0 4.66667V37.3333C0 39.9117 2.08833 42 4.66667 42H37.3333C39.9117 42 42 39.9117 42 37.3333V4.66667C42 2.08833 39.9117 0 37.3333 0ZM34.783 29.596L30.7347 29.652C30.7347 29.652 29.862 29.8223 28.7187 29.0337C27.2043 27.993 25.7763 25.2863 24.6633 25.6387C23.534 25.998 23.569 28.434 23.569 28.434C23.569 28.434 23.5783 28.8633 23.3193 29.1433C23.0393 29.4443 22.491 29.414 22.491 29.414H20.678C20.678 29.414 16.6787 29.7453 13.153 26.0703C9.31233 22.064 5.91967 14.1563 5.91967 14.1563C5.91967 14.1563 5.72133 13.657 5.93367 13.4027C6.174 13.1203 6.82267 13.1133 6.82267 13.1133L11.1557 13.0923C11.1557 13.0923 11.564 13.1647 11.858 13.3793C12.0983 13.5567 12.236 13.8903 12.236 13.8903C12.236 13.8903 12.936 15.666 13.8647 17.2737C15.6753 20.4073 16.5177 21.0933 17.1313 20.7573C18.0273 20.2673 17.759 16.3287 17.759 16.3287C17.759 16.3287 17.7753 14.8983 17.3087 14.2613C16.9447 13.7643 16.261 13.6173 15.96 13.58C15.715 13.5473 16.114 12.9803 16.6343 12.7237C17.4137 12.3433 18.7927 12.32 20.419 12.3363C21.686 12.3503 22.0523 12.4273 22.547 12.5487C24.0427 12.9103 23.534 14.3057 23.534 17.654C23.534 18.7273 23.3403 20.2347 24.1127 20.7317C24.4463 20.9463 25.2583 20.7643 27.286 17.311C28.2497 15.673 28.9707 13.748 28.9707 13.748C28.9707 13.748 29.1293 13.405 29.3743 13.258C29.6263 13.1063 29.9647 13.153 29.9647 13.153L34.5263 13.125C34.5263 13.125 35.896 12.9593 36.12 13.5823C36.3533 14.2333 35.609 15.7523 33.7447 18.2373C30.6857 22.3207 30.345 21.9403 32.886 24.3017C35.3127 26.558 35.8143 27.6547 35.8983 27.7923C36.9017 29.463 34.783 29.596 34.783 29.596Z" fill="white"/>
</svg>
