<svg width="40" height="40" viewBox="0 0 40 40" fill="none" xmlns="http://www.w3.org/2000/svg">
<g id="svg" clip-path="url(#clip0_52_424)">
<path id="Vector" d="M40 30.9802C39.4179 31.2004 38.7752 31.1999 38.1934 30.9788C37.6116 30.7578 37.1308 30.3314 36.8417 29.7802L31.0917 21.8285L30.2584 20.7169L23.5867 29.7902C23.315 30.3183 22.8603 30.7293 22.3075 30.9465C21.7548 31.1637 21.1419 31.1721 20.5834 30.9702L29.18 19.4369L21.1834 9.01853C21.7583 8.81133 22.3872 8.80858 22.964 9.01076C23.5407 9.21293 24.0302 9.60768 24.35 10.1285L30.31 18.1785L36.3034 10.1619C36.5771 9.64318 37.032 9.24318 37.5814 9.03792C38.1308 8.83265 38.7365 8.83643 39.2834 9.04853L36.18 13.1669L31.9767 18.6385C31.86 18.7427 31.7665 18.8703 31.7026 19.013C31.6386 19.1558 31.6056 19.3104 31.6056 19.4669C31.6056 19.6233 31.6386 19.7779 31.7026 19.9207C31.7665 20.0635 31.86 20.1911 31.9767 20.2952L39.9834 30.9819L40 30.9802ZM0.00335333 19.2935L0.703353 15.8352C2.62669 8.99687 10.4667 6.15187 15.86 10.3852C19.0184 12.8669 19.8067 16.3802 19.6517 20.3402H1.86002C1.57169 27.4119 6.67502 31.6819 13.2 29.5002C14.2578 29.1195 15.2046 28.4823 15.9556 27.6457C16.7066 26.8092 17.2384 25.7994 17.5034 24.7069C17.8484 23.5969 18.4167 23.4069 19.46 23.7269C19.2862 25.0808 18.8075 26.3778 18.0601 27.5201C17.3127 28.6624 16.316 29.6203 15.145 30.3219C13.2107 31.3799 10.9914 31.7993 8.80439 31.52C6.61739 31.2407 4.57468 30.2771 2.96835 28.7669C1.38007 26.9792 0.420147 24.721 0.23502 22.3369C0.23502 21.9452 0.101687 21.5785 0.0116867 21.2269C0.00357338 20.583 -0.000315595 19.9391 1.99938e-05 19.2952L0.00335333 19.2935ZM1.88169 18.8169H17.9717C17.8717 13.6902 14.6367 10.0535 10.3217 10.0202C5.51835 9.95353 2.08169 13.5102 1.87002 18.7935L1.88169 18.8169Z" fill="white"/>
</g>
<defs>
<clipPath id="clip0_52_424">
<rect width="40" height="40" fill="white"/>
</clipPath>
</defs>
</svg>
