<svg width="40" height="40" viewBox="0 0 40 40" fill="none" xmlns="http://www.w3.org/2000/svg">
<g id="svg" clip-path="url(#clip0_52_417)">
<g id="Group">
<path id="Vector" d="M40 36.9363V3.06338C40 1.67381 39.0746 0.501056 37.8067 0.125977L36.3668 0.987511L20.388 18.0245L19.8871 19.5904L19.5944 21.0933L24.5771 39.7152L25.3481 39.9998H36.9365C38.6284 39.9998 40 38.6283 40 36.9363Z" fill="#EA6618"/>
<path id="Vector_2" d="M0 3.06349V36.9365C0 37.984 0.526032 38.9082 1.32799 39.4606L2.31053 38.9902L19.224 20.8818L19.887 19.5905L19.9118 18.3421L15.3086 0.828889L14.6116 0H3.06349C1.37159 0 0 1.37159 0 3.06349Z" fill="#D65813"/>
<path id="Vector_3" d="M19.887 19.5905L37.8067 0.126138C37.5307 0.0444974 37.2389 0 36.9365 0H14.6116L19.887 19.5905Z" fill="#E05E11"/>
<path id="Vector_4" d="M3.06351 39.9999H25.3481L19.887 19.5903L1.328 39.4605C1.82139 39.8004 2.41906 39.9999 3.06351 39.9999Z" fill="#DE5C16"/>
<path id="Vector_5" d="M14.8309 15.1609H17.0536C17.9392 18.5025 18.9471 21.4348 20.0716 24.0805C21.3454 21.1039 22.279 18.1696 23.0693 15.1609H25.1696C24.229 18.8994 22.6903 22.6671 20.9303 26.5562H19.0725C17.3819 22.8708 15.9427 19.0817 14.8309 15.1609ZM7.4997 9.37109H12.442V30.5644H7.47791V28.9307H10.5202V10.9613H7.4997V9.37109ZM32.526 10.9613H29.5055V28.9307H32.5478V30.5644H27.5838V9.37111H32.526V10.9613Z" fill="white"/>
</g>
</g>
<defs>
<clipPath id="clip0_52_417">
<rect width="40" height="40" fill="white"/>
</clipPath>
</defs>
</svg>
