<svg width="41" height="40" viewBox="0 0 41 40" fill="none" xmlns="http://www.w3.org/2000/svg">
<g id="svg">
<path id="Vector" fill-rule="evenodd" clip-rule="evenodd" d="M23.2974 2.5C23.0572 2.50336 22.8192 2.54557 22.5924 2.625C24.6112 3.9525 22.2299 5.875 23.3424 7.5C23.2658 6.95342 23.3527 6.39639 23.5923 5.89918C23.8319 5.40197 24.2134 4.98687 24.6887 4.70625C25.0449 4.41 25.2737 4.30375 25.1974 3.81375C25.0737 3.01125 24.0037 2.5 23.2974 2.5ZM26.1724 3.0175C25.8937 4.42125 25.5474 4.4725 24.5187 5.37625C24.1174 5.69258 23.8343 6.13471 23.7148 6.63149C23.5953 7.12827 23.6464 7.6508 23.8599 8.115C19.6099 6.465 14.1624 5.4675 10.1687 8.3225C8.73245 9.34875 7.8562 10.8225 6.08495 11.4237C4.93995 11.8162 3.81495 11.7 3.09745 12.835C2.83504 13.1627 2.69796 13.5732 2.71079 13.9929C2.72361 14.4125 2.88551 14.8139 3.16745 15.125C3.3812 15.3438 3.79245 15.4837 3.96245 15.7062C4.0612 15.8312 4.0587 15.9562 4.15245 16.1225C4.31813 16.5099 4.55757 16.8615 4.85745 17.1575C5.0412 17.3088 5.67245 17.4563 5.77995 17.6175C5.91495 17.8187 5.56495 18.6175 5.8587 18.7425C6.0562 18.8337 6.63495 17.8125 6.6912 17.7225C6.5762 18.5263 6.42495 19.9525 7.3287 18.765C7.75745 18.2013 7.7837 18.015 8.50495 17.89C8.9665 17.8098 9.43301 17.7614 9.9012 17.745C12.5758 17.6514 15.1845 18.5873 17.1896 20.3599C19.1947 22.1325 20.4435 24.6066 20.6787 27.2725C20.5437 26.6475 19.7274 25.6475 18.9674 25.885C18.6437 25.985 18.5237 26.5437 18.3112 26.8675C18.0425 27.278 17.7115 27.6441 17.3299 27.9525C17.3945 27.3465 17.3642 26.7341 17.2399 26.1375C17.0124 27.0725 16.5562 28.6238 15.4074 28.3725C15.0248 28.3141 14.6662 28.1493 14.3727 27.8969C14.0792 27.6444 13.8625 27.3146 13.7474 26.945C13.5987 25.995 14.6024 24.8812 12.9887 24.8025C9.7512 24.6437 10.4999 29.405 12.4112 30.6462C11.9719 30.6948 11.5435 30.8143 11.1424 31C12.3565 31.7051 13.7245 32.1028 15.1274 32.1586C16.5302 32.2143 17.9255 31.9264 19.1917 31.32C20.4579 30.7135 21.5567 29.8067 22.3925 28.6787C23.2284 27.5506 23.7759 26.2354 23.9874 24.8475C24.2656 26.1186 24.2592 27.4354 23.9687 28.7037C23.8134 29.3777 23.581 30.0316 23.2762 30.6525C22.863 31.4911 22.3139 32.2556 21.6512 32.915C21.2587 33.3038 20.5387 33.695 20.2912 34.0913C21.8062 33.8904 23.2865 33.4833 24.6912 32.8813C23.2371 34.8729 21.3007 36.4623 19.0637 37.5C21.4622 37.3303 23.7807 36.5663 25.8102 35.2768C27.8396 33.9873 29.5162 32.213 30.6887 30.1138C30.315 32.2132 29.4851 34.2051 28.2574 35.9487C29.9086 34.8434 31.3134 33.4085 32.3836 31.7343C33.4537 30.0601 34.1662 28.1827 34.4762 26.22C34.784 27.6567 34.8721 29.1318 34.7374 30.595C36.0938 28.7103 37.0101 26.5453 37.4188 24.2595C37.8274 21.9738 37.718 19.6254 37.0987 17.3875C36.625 15.6478 35.9146 13.9814 34.9874 12.435C34.6294 11.8325 34.2376 11.2507 33.8137 10.6925C33.6474 10.4762 32.7587 9.685 32.7587 9.4425C32.7512 9.46667 32.7449 9.46667 32.7399 9.4425C32.7399 13.5025 28.3649 16.1088 24.7012 15.0212C26.0943 14.9132 27.411 14.3414 28.4411 13.3973C29.4711 12.4531 30.1551 11.191 30.3837 9.8125C30.5861 8.36632 30.2758 6.8949 29.5065 5.65367C28.7372 4.41243 27.5576 3.47975 26.1724 3.0175Z" fill="#EA2845"/>
</g>
</svg>
