<svg width="41" height="40" viewBox="0 0 41 40" fill="none" xmlns="http://www.w3.org/2000/svg">
<g id="svg" clip-path="url(#clip0_49_301)">
<g id="Clip path group">
<g id="Group">
<path id="Vector" d="M18.8034 0.0107657C18.7174 0.0185858 18.4436 0.0459563 18.1972 0.0655066C12.516 0.577725 7.19435 3.64322 3.82387 8.35485C1.94704 10.9746 0.746652 13.9462 0.293084 17.0938C0.132771 18.1927 0.11322 18.5172 0.11322 20.0068C0.11322 21.4967 0.132771 21.8212 0.293084 22.9198C1.38008 30.4312 6.72515 36.742 13.9744 39.0802C15.2726 39.4985 16.6411 39.784 18.1972 39.956C18.8034 40.0225 21.4231 40.0225 22.0292 39.956C24.7154 39.6588 26.9911 38.9942 29.2354 37.8485C29.5796 37.6725 29.6459 37.6257 29.5991 37.5865C29.5677 37.563 28.1016 35.5963 26.3419 33.219L23.1436 28.8983L19.1357 22.9668C16.9304 19.7058 15.1162 17.0392 15.1005 17.0392C15.0849 17.0352 15.0692 19.6707 15.0614 22.8885C15.0497 28.523 15.0458 28.7498 14.9754 28.8827C14.8737 29.0743 14.7955 29.1525 14.6313 29.2385C14.5062 29.3012 14.3967 29.3128 13.8063 29.3128H13.1298L12.95 29.1995C12.8327 29.1252 12.7467 29.0273 12.688 28.914L12.6059 28.738L12.6137 20.8983L12.6254 13.0547L12.7467 12.9023C12.8092 12.8201 12.9422 12.7146 13.036 12.6637C13.1963 12.5855 13.2589 12.5777 13.9353 12.5777C14.733 12.5777 14.8659 12.609 15.0731 12.8358C15.1318 12.8983 17.3019 16.1672 19.8982 20.1047C22.4944 24.042 26.0447 29.4183 27.7887 32.0577L30.9559 36.8553L31.1162 36.7498C32.5356 35.827 34.0371 34.5132 35.2256 33.1447C37.7554 30.2395 39.3859 26.697 39.9334 22.9198C40.0937 21.8212 40.1132 21.4967 40.1132 20.0068C40.1132 18.5172 40.0937 18.1927 39.9334 17.0938C38.8464 9.58262 33.5012 3.27177 26.2521 0.933542C24.9734 0.519075 23.6127 0.23364 22.0879 0.0615967C21.7124 0.022496 19.1279 -0.0205148 18.8034 0.0107657ZM26.9911 12.1085C27.1787 12.2024 27.3312 12.3822 27.3859 12.5699C27.4172 12.6716 27.4251 14.8456 27.4172 19.7448L27.4056 26.7752L26.1661 24.8748L24.9226 22.9747V17.8642C24.9226 14.5601 24.9382 12.7028 24.9617 12.6129C25.0242 12.3939 25.1611 12.2219 25.3487 12.1202C25.5091 12.0381 25.5677 12.0303 26.1817 12.0303C26.7604 12.0303 26.8621 12.0381 26.9911 12.1085Z" fill="white"/>
</g>
</g>
</g>
<defs>
<clipPath id="clip0_49_301">
<rect width="40" height="40" fill="white" transform="translate(0.11322)"/>
</clipPath>
</defs>
</svg>
