<svg width="41" height="40" viewBox="0 0 41 40" fill="none" xmlns="http://www.w3.org/2000/svg">
<g id="svg">
<g id="Group">
<path id="Vector" d="M39.6587 23.9523C39.4261 23.2481 38.8169 22.7574 38.0289 22.6396C37.6575 22.5842 37.232 22.6078 36.7285 22.7117C35.851 22.8927 35.1999 22.9616 34.7248 22.975C36.5182 19.947 37.9765 16.4939 38.8161 13.2434C40.1736 7.98758 39.4482 5.59321 38.6005 4.51011C36.357 1.64357 33.0839 0.103521 29.135 0.0563125C27.0286 0.0306032 25.1792 0.44652 24.2146 0.745536C23.3164 0.58716 22.3506 0.498655 21.3372 0.482262C19.4378 0.451985 17.7595 0.866021 16.3254 1.71703C15.5313 1.44865 14.2572 1.07017 12.7857 0.828576C9.32467 0.260374 6.53535 0.703165 4.49509 2.1445C2.02449 3.88968 0.879124 6.92177 1.09098 11.1566C1.15816 12.5012 1.91036 16.592 3.0946 20.4718C3.77523 22.7017 4.501 24.5536 5.25176 25.9763C6.31641 27.9937 7.4556 29.1818 8.73452 29.6084C9.45142 29.8473 10.7538 30.0144 12.1238 28.8737C12.2974 29.0839 12.5289 29.2929 12.8364 29.4869C13.2268 29.7332 13.7043 29.9344 14.181 30.0536C15.8994 30.4832 17.509 30.3757 18.8822 29.7736C18.8906 30.0178 18.8971 30.2512 18.9027 30.4527C18.9118 30.7795 18.9208 31.1 18.9328 31.3996C19.0141 33.4261 19.152 35.0017 19.5605 36.104C19.5829 36.1648 19.613 36.2571 19.6449 36.355C19.8486 36.9791 20.1895 38.0236 21.0563 38.8417C21.9542 39.689 23.0401 39.949 24.0346 39.9489C24.5334 39.9489 25.0093 39.8835 25.4267 39.794C26.9147 39.4752 28.6045 38.9893 29.8269 37.2488C30.9825 35.6033 31.5444 33.125 31.6461 29.2199C31.6592 29.1095 31.6714 29.0041 31.6831 28.9036C31.691 28.8358 31.6991 28.7664 31.7072 28.6973L31.9796 28.7212L32.0497 28.7259C33.5652 28.795 35.4182 28.4736 36.5563 27.945C37.4556 27.5276 40.3371 26.0064 39.6587 23.9523Z" fill="black"/>
<path id="Vector_2" d="M37.0674 24.3518C32.5614 25.2813 32.2516 23.7557 32.2516 23.7557C37.0093 16.6961 38.9981 7.73501 37.2818 5.54184C32.5995 -0.440721 24.4941 2.38864 24.3589 2.4621L24.3153 2.46989C23.4251 2.28509 22.4288 2.175 21.3091 2.15672C19.2701 2.12331 17.7236 2.69124 16.55 3.58122C16.55 3.58122 2.09088 -2.37537 2.76335 11.0727C2.90641 13.9337 6.86394 32.7202 11.5843 27.0458C13.3096 24.9709 14.9766 23.2165 14.9766 23.2165C15.8046 23.7665 16.7958 24.0471 17.8349 23.9463L17.9156 23.8778C17.8905 24.1354 17.902 24.3874 17.948 24.6857C16.7319 26.0443 17.0892 26.2829 14.6583 26.7833C12.1986 27.2902 13.6436 28.1927 14.587 28.4286C15.7308 28.7146 18.3769 29.1198 20.1648 26.6169L20.0935 26.9025C20.5699 27.2841 20.9045 29.3848 20.8484 31.2891C20.7924 33.1935 20.7549 34.5009 21.1304 35.5221C21.5058 36.5433 21.88 38.841 25.0756 38.1563C27.7459 37.584 29.1296 36.1011 29.3221 33.6276C29.4587 31.869 29.7679 32.129 29.7874 30.5568L30.0354 29.8125C30.3213 27.4287 30.0808 26.6596 31.7259 27.0173L32.1257 27.0524C33.3365 27.1075 34.9213 26.8577 35.8514 26.4254C37.8542 25.4959 39.042 23.944 37.0672 24.3518H37.0674Z" fill="#336791"/>
<path id="Vector_3" d="M17.3963 12.3522C16.9904 12.2957 16.6226 12.348 16.4365 12.4888C16.3318 12.5681 16.2994 12.6599 16.2907 12.7232C16.2674 12.8906 16.3847 13.0757 16.4567 13.1712C16.6606 13.4414 16.9586 13.6272 17.2535 13.6681C17.2962 13.6741 17.3386 13.6769 17.3809 13.6769C17.8727 13.6769 18.3197 13.2941 18.3591 13.0114C18.4084 12.6575 17.8946 12.4216 17.3963 12.3522Z" fill="white"/>
<path id="Vector_4" d="M30.8484 12.3634C30.8097 12.086 30.3159 12.0069 29.8474 12.072C29.3796 12.1372 28.9259 12.3484 28.9638 12.6264C28.9942 12.8427 29.3845 13.2118 29.8468 13.2117C29.8857 13.2117 29.9251 13.2091 29.9648 13.2036C30.2733 13.1608 30.4997 12.9649 30.6072 12.852C30.771 12.68 30.8657 12.4881 30.8484 12.3634Z" fill="white"/>
<path id="Vector_5" d="M38.5669 24.2463C38.3951 23.7268 37.8421 23.5595 36.9233 23.7493C34.1952 24.3123 33.2183 23.9223 32.8974 23.6861C35.0179 20.4557 36.7623 16.551 37.7033 12.9077C38.1492 11.182 38.3954 9.57931 38.4155 8.27306C38.4377 6.83907 38.1936 5.78553 37.6899 5.1419C35.6592 2.54715 32.679 1.15535 29.0714 1.1171C26.5913 1.08924 24.4958 1.724 24.0896 1.90244C23.2341 1.68969 22.3015 1.55908 21.2863 1.54242C19.4244 1.51232 17.8151 1.95807 16.4826 2.86659C15.9038 2.65124 14.408 2.13777 12.5789 1.84314C9.41638 1.33388 6.90341 1.7197 5.11003 2.99021C2.97016 4.50625 1.98228 7.2162 2.17371 11.0446C2.23812 12.3328 2.97195 16.2952 4.13021 20.0899C5.65477 25.0844 7.3119 27.9119 9.05565 28.4935C9.25971 28.5615 9.49512 28.6092 9.75455 28.6092C10.3906 28.6092 11.1704 28.3225 11.9818 27.347C13.3296 25.7256 14.5879 24.367 15.0517 23.8733C15.7372 24.2413 16.4901 24.4467 17.2604 24.4673C17.2617 24.4875 17.2638 24.5076 17.2656 24.5277C17.1111 24.711 16.9843 24.8716 16.8763 25.0087C16.3427 25.6861 16.2316 25.8271 14.5138 26.1809C14.0252 26.2817 12.7273 26.5491 12.7084 27.4588C12.6877 28.4527 14.2424 28.8701 14.4196 28.9144C15.0369 29.0689 15.6315 29.1451 16.1986 29.1451C17.578 29.1451 18.7917 28.6918 19.7617 27.8147C19.7318 31.358 19.8796 34.8496 20.305 35.9134C20.6534 36.7842 21.5047 38.9126 24.1936 38.9124C24.588 38.9124 25.0224 38.8666 25.5001 38.7642C28.3063 38.1625 29.5248 36.9223 29.9963 34.1879C30.2485 32.7266 30.6815 29.237 30.885 27.3652C31.3147 27.4992 31.8679 27.5606 32.466 27.5605C33.7133 27.5605 35.1525 27.2955 36.0551 26.8766C37.0689 26.4057 38.8987 25.2501 38.5669 24.2463ZM31.8842 11.5977C31.8748 12.1503 31.7988 12.652 31.7182 13.1757C31.6314 13.7388 31.5417 14.3211 31.5191 15.028C31.4968 15.7159 31.5827 16.4311 31.6658 17.1226C31.8337 18.5195 32.006 19.9577 31.3391 21.3768C31.2354 21.1927 31.1354 20.9919 31.0436 20.7695C30.9608 20.5685 30.7808 20.2458 30.5317 19.7991C29.5621 18.0603 27.2916 13.9886 28.4539 12.3271C28.8 11.8324 29.6786 11.324 31.8842 11.5977ZM29.2108 2.23613C32.4432 2.30752 35.0001 3.51675 36.8105 5.83005C38.199 7.60444 36.67 15.6782 32.2438 22.6435C32.2001 22.5879 32.1556 22.5319 32.1095 22.4743C32.0912 22.4513 32.0724 22.4279 32.0535 22.4043C33.1973 20.5153 32.9736 18.6464 32.7746 16.9894C32.6928 16.3094 32.6156 15.6671 32.6352 15.0639C32.6555 14.4243 32.7401 13.876 32.8218 13.3457C32.9224 12.6921 33.0246 12.016 32.9964 11.2188C33.0174 11.1352 33.0259 11.0364 33.0149 10.9191C32.9429 10.1547 32.0702 7.86709 30.2913 5.79628C29.3184 4.66382 27.8994 3.39636 25.962 2.5415C26.7953 2.36879 27.935 2.20773 29.2108 2.23613ZM11.1232 26.6331C10.2293 27.7078 9.61194 27.5019 9.40895 27.4343C8.08613 26.993 6.55137 24.1973 5.19818 19.7639C4.02729 15.9279 3.34299 12.0705 3.28888 10.9888C3.11788 7.56798 3.94711 5.18383 5.75366 3.90266C8.69366 1.8177 13.5274 3.06563 15.4696 3.6986C15.4417 3.7261 15.4127 3.7519 15.385 3.77985C12.1978 6.9987 12.2734 12.4982 12.2812 12.8343C12.281 12.964 12.2918 13.1476 12.3068 13.4002C12.3616 14.3251 12.4636 16.0467 12.191 17.9963C11.9376 19.8079 12.496 21.5812 13.7229 22.8612C13.8499 22.9937 13.9825 23.1182 14.1195 23.2352C13.5733 23.8201 12.3865 25.1134 11.1232 26.6331ZM14.5291 22.0886C13.5403 21.0569 13.0912 19.6218 13.2969 18.1509C13.5848 16.0914 13.4785 14.2977 13.4214 13.3341C13.4134 13.1993 13.4063 13.0811 13.4021 12.9879C13.8678 12.5751 16.0255 11.4189 17.5642 11.7715C18.2665 11.9324 18.6942 12.4105 18.8721 13.233C19.7928 17.491 18.994 19.2657 18.3522 20.6918C18.2199 20.9856 18.0949 21.2633 17.9881 21.5507L17.9055 21.7728C17.696 22.3343 17.5012 22.8564 17.3804 23.3522C16.3293 23.349 15.3067 22.9 14.5291 22.0886ZM14.6905 27.8311C14.3836 27.7544 14.1075 27.6212 13.9455 27.5108C14.0808 27.4471 14.3216 27.3605 14.7391 27.2745C16.7599 26.8585 17.0719 26.5649 17.7534 25.6996C17.9098 25.5012 18.0869 25.2763 18.3321 25.0024L18.3324 25.002C18.6978 24.593 18.8649 24.6623 19.1679 24.788C19.4135 24.8897 19.6527 25.1975 19.7497 25.5363C19.7956 25.6963 19.8472 26 19.6785 26.2362C18.2548 28.2296 16.1803 28.2039 14.6905 27.8311ZM25.266 37.6724C22.7939 38.2021 21.9186 36.9407 21.3418 35.4987C20.9695 34.5677 20.7866 30.3698 20.9164 25.734C20.9181 25.6722 20.9093 25.6127 20.8923 25.5567C20.8775 25.4486 20.8548 25.3392 20.8232 25.2291C20.6301 24.5546 20.1597 23.9903 19.5954 23.7564C19.3712 23.6635 18.9595 23.493 18.465 23.6195C18.5705 23.185 18.7534 22.6944 18.9517 22.163L19.0349 21.9394C19.1286 21.6874 19.246 21.4264 19.3704 21.1501C20.042 19.6579 20.9619 17.6141 19.9636 12.9969C19.5896 11.2676 18.3408 10.4231 16.4477 10.6192C15.3128 10.7367 14.2745 11.1946 13.7567 11.4572C13.6453 11.5136 13.5435 11.5681 13.4484 11.6212C13.5928 9.87868 14.139 6.62238 16.1818 4.56214C17.4679 3.26503 19.1808 2.62445 21.2678 2.65894C25.38 2.7263 28.0169 4.83662 29.5051 6.59515C30.7874 8.11056 31.4818 9.637 31.759 10.4602C29.6749 10.2484 28.2575 10.6598 27.5389 11.687C25.9758 13.9215 28.3941 18.2586 29.5564 20.3429C29.7695 20.725 29.9535 21.0551 30.0114 21.1953C30.3899 22.1126 30.8799 22.725 31.2377 23.1721C31.3473 23.3091 31.4537 23.4419 31.5346 23.5579C30.9034 23.7399 29.7696 24.1603 29.8729 26.2619C29.7896 27.3166 29.1969 32.2538 28.896 33.9982C28.4986 36.3027 27.6505 37.1612 25.266 37.6724ZM35.5849 25.8638C34.9394 26.1634 33.8593 26.3882 32.8332 26.4364C31.6998 26.4895 31.1229 26.3094 30.9872 26.1987C30.9234 24.8891 31.411 24.7522 31.9269 24.6073C32.0079 24.5845 32.087 24.5624 32.1634 24.5357C32.2108 24.5743 32.2628 24.6126 32.3197 24.6501C33.2306 25.2514 34.8554 25.3163 37.1491 24.8428C37.1575 24.841 37.1659 24.8394 37.1743 24.8377C36.8649 25.127 36.3355 25.5152 35.5849 25.8638Z" fill="white"/>
</g>
</g>
</svg>
