<svg width="41" height="40" viewBox="0 0 41 40" fill="none" xmlns="http://www.w3.org/2000/svg">
<g id="svg" clip-path="url(#clip0_52_325)">
<g id="Group">
<path id="Vector" d="M36.6003 30.3895L22.8826 1.25805C22.5354 0.527659 21.8157 0.0464379 21.008 0.00464317C20.1985 -0.0495955 19.426 0.350873 19.0038 1.04366L4.12542 25.1416C3.66353 25.8844 3.67325 26.8275 4.15035 27.5606L11.4245 38.8253C11.9897 39.6938 13.0588 40.0869 14.052 39.7916L35.1614 33.5475C35.8045 33.3594 36.3345 32.9019 36.6143 32.2931C36.8902 31.6872 36.8855 30.9906 36.6013 30.3885L36.6003 30.3895ZM33.5291 31.6389L15.6165 36.9357C15.07 37.0983 14.5455 36.6246 14.6592 36.0732L21.0589 5.43009C21.1785 4.85673 21.9703 4.76599 22.2205 5.29647L34.0676 30.4543C34.1736 30.6812 34.1749 30.9431 34.0711 31.1711C33.9673 31.399 33.7689 31.57 33.5281 31.6389H33.5291Z" fill="white"/>
</g>
</g>
<defs>
<clipPath id="clip0_52_325">
<rect width="40" height="40" fill="white" transform="translate(0.30188)"/>
</clipPath>
</defs>
</svg>
