<svg width="38" height="40" viewBox="0 0 38 40" fill="none" xmlns="http://www.w3.org/2000/svg">
<g id="svg">
<g clip-path="url(#clip0_52_313)">
<path id="Vector" d="M37.6094 -5.64111H1.85615C-0.964709 -5.64111 -3.25146 -3.34514 -3.25146 -0.512908V37.9486C-3.25146 40.7809 -0.964709 43.0768 1.85615 43.0768H37.6094C40.4303 43.0768 42.717 40.7809 42.717 37.9486V-0.512908C42.717 -3.34514 40.4303 -5.64111 37.6094 -5.64111Z" fill="#007AF4"/>
<path id="Vector_2" d="M18.9666 7.69231C21.0823 7.69231 22.7973 5.97033 22.7973 3.84615C22.7973 1.72198 21.0823 0 18.9666 0C16.851 0 15.1359 1.72198 15.1359 3.84615C15.1359 5.97033 16.851 7.69231 18.9666 7.69231Z" fill="white"/>
<path id="Vector_3" d="M18.9666 39.9999C21.0823 39.9999 22.7973 38.2779 22.7973 36.1538C22.7973 34.0296 21.0823 32.3076 18.9666 32.3076C16.851 32.3076 15.1359 34.0296 15.1359 36.1538C15.1359 38.2779 16.851 39.9999 18.9666 39.9999Z" fill="white"/>
<g id="Group">
<path id="Vector_4" d="M19.2215 7.17944C18.4559 13.3333 26.1173 11.7948 26.1173 16.1538C26.1173 18.7179 23.115 19.4179 19.2215 19.7435C16.1569 20 12.0714 20 12.0714 24.1025C12.0714 28.2051 20.2435 26.923 19.2215 32.8205M14.1818 11.463C14.1818 19.3035 26.0059 20.842 26.0059 28.1912" stroke="white" stroke-width="3"/>
</g>
</g>
</g>
<defs>
<clipPath id="clip0_52_313">
<rect x="0.226379" width="37.7359" height="40" rx="8" fill="white"/>
</clipPath>
</defs>
</svg>
