<svg xmlns="http://www.w3.org/2000/svg" width="38" height="38" viewBox="0 0 38 38" fill="none">
  <g clip-path="url(#clip0_140_2)">
    <path d="M32.3 0H5.7C2.55198 0 0 2.55198 0 5.7V32.3C0 35.448 2.55198 38 5.7 38H32.3C35.448 38 38 35.448 38 32.3V5.7C38 2.55198 35.448 0 32.3 0Z" fill="#CC6699"/>
    <path d="M19.1485 6.53122C12.0235 8.98044 7.4219 13.9531 7.86721 16.9218C8.31253 19.8906 12.7657 22.2656 14.7696 23.8242C12.1719 25.1601 8.90628 27.164 8.9805 29.7617C9.12893 33.3242 12.9883 32.2109 14.6211 31.1718C16.2539 30.1328 17.8867 27.2383 16.8477 24.1953C19.1485 23.6015 21.1524 24.3437 21.7461 24.789C24.0469 26.4218 22.8594 28.2773 22.043 28.5742C21.2266 28.8711 21.7461 29.0195 22.2656 28.8711C22.7852 28.7226 23.8985 27.9804 23.8985 26.7187C23.8985 23.5273 20.4844 22.0429 16.2539 23.1562C13.8047 20.5586 10.4649 19.3711 10.6133 16.5508C10.6875 15.5117 11.0586 12.8398 17.6641 9.49997C24.2696 6.16013 28.9453 7.49606 28.3516 10.539C27.461 15.1406 19.4453 18.2578 16.625 15.5859C16.4766 15.289 15.9571 15.0664 16.2539 15.8828C17.7383 19.5937 29.7617 17.8867 30.2813 10.0195C30.4297 5.86325 24.418 4.74997 19.1485 6.53122ZM12.7657 30.2812C10.9102 30.875 10.9844 29.6875 11.0586 29.2422C11.2813 27.9804 12.3203 26.4218 15.4375 24.8633C16.3282 27.6836 14.3242 29.8359 12.7657 30.2812Z" fill="white"/>
  </g>
  <defs>
    <clipPath id="clip0_140_2">
      <rect width="38" height="38" fill="white"/>
    </clipPath>
  </defs>
</svg>