<svg width="40" height="40" viewBox="0 0 40 40" fill="none" xmlns="http://www.w3.org/2000/svg">
<g id="svg">
<path id="Vector" d="M30.765 13.6612V26.2699L20.0512 32.6087L19.955 32.6962V37.4087L20.0512 37.4999L35.14 28.7849V11.2149L35 11.1812L30.75 13.5562L30.7712 13.6587" fill="#2F406A"/>
<path id="Vector_2" d="M9.30374 26.3748L20.0537 32.6098V37.4998L4.85999 28.7498V11.2498L5.01624 11.2261L9.25749 13.6923L9.30374 13.8336V26.3748Z" fill="#2379BD"/>
<path id="Vector_3" d="M9.30374 13.8337L4.85999 11.25L20.0175 2.5L35.1425 11.215L30.7675 13.6612L20.0175 7.52875L9.30374 13.8337Z" fill="#03AFEF"/>
<path id="Vector_4" d="M19.8675 24.9312L19.7512 24.8062V20.0774L19.8675 20.0174L19.8962 19.9012L23.955 17.5337L24.08 17.5612V22.4362L19.8687 24.9274" fill="#2F406A"/>
<path id="Vector_5" d="M15.5863 22.5914V17.5264H15.7038L19.8288 19.9289L19.8638 20.0239V24.9376L15.5825 22.5976" fill="#2379BD"/>
<path id="Vector_6" d="M19.7976 15.0337L15.5863 17.5249L19.8676 20.0162L24.0788 17.5599L19.7976 15.0337Z" fill="#03AFEF"/>
<path id="Vector_7" d="M14.625 28.0188L14.5088 27.8938V23.1663L14.625 23.1063L14.6538 22.99L18.7138 20.625L18.8388 20.6525V25.5275L14.625 28.0188Z" fill="#2F406A"/>
<path id="Vector_8" d="M10.345 25.68V20.6138H10.4625L14.5875 23.0163L14.6225 23.1113V28.025L10.345 25.68Z" fill="#2379BD"/>
<path id="Vector_9" d="M14.5562 18.125L10.345 20.6137L14.625 23.1063L18.8375 20.65L14.5562 18.125Z" fill="#03AFEF"/>
<path id="Vector_10" d="M25.4825 28.1363L25.3662 28.0113V23.2825L25.4825 23.2225L25.5112 23.1063L29.57 20.7388L29.695 20.7663V25.6413L25.4837 28.1325" fill="#2F406A"/>
<path id="Vector_11" d="M21.2013 25.7964V20.7314H21.3188L25.4438 23.1339L25.4788 23.2289V28.1427L21.1975 25.8027" fill="#2379BD"/>
<path id="Vector_12" d="M25.4125 18.2402L21.2013 20.7315L25.4825 23.2227L29.6938 20.7665L25.4125 18.2402Z" fill="#03AFEF"/>
<path id="Vector_13" d="M20.2413 31.2248L20.125 31.0998V26.3748L20.2413 26.3148L20.27 26.1986L24.3287 23.8311L24.4537 23.8586V28.7336L20.2413 31.2248Z" fill="#2F406A"/>
<path id="Vector_14" d="M15.96 28.8848V23.8198H16.0775L20.2025 26.2223L20.2375 26.3173V31.2248L15.9563 28.8848" fill="#2379BD"/>
<path id="Vector_15" d="M20.1712 21.3274L15.96 23.8187L20.2412 26.3099L24.4525 23.8537L20.1712 21.3274Z" fill="#03AFEF"/>
<path id="Vector_16" d="M19.8675 18.2163L19.7512 18.0913V13.3626L19.8675 13.3026L19.8962 13.1863L23.955 10.8188L24.08 10.8463V15.7213L19.8687 18.2126" fill="#2F406A"/>
<path id="Vector_17" d="M15.5863 15.8748V10.811H15.7038L19.8288 13.2135L19.8638 13.3085V18.2223L15.5863 15.8748Z" fill="#2379BD"/>
<path id="Vector_18" d="M19.7976 8.31982L15.5863 10.8111L19.8676 13.3023L24.0788 10.8461L19.7976 8.31982Z" fill="#03AFEF"/>
<path id="Vector_19" d="M14.625 21.3052L14.5088 21.1802V16.4515L14.625 16.3915L14.6538 16.2752L18.7125 13.9077L18.8375 13.9352V18.8102L14.625 21.3052Z" fill="#2F406A"/>
<path id="Vector_20" d="M10.345 18.9649V13.8999H10.4625L14.5875 16.3024L14.6225 16.3974V21.3112L10.345 18.9649Z" fill="#2379BD"/>
<path id="Vector_21" d="M14.5562 11.4077L10.345 13.9002L14.625 16.3915L18.8362 13.9352L14.5562 11.4077Z" fill="#03AFEF"/>
<path id="Vector_22" d="M25.4825 21.4212L25.3662 21.2962V16.5687L25.4825 16.5087L25.5112 16.3924L29.57 14.0249L29.695 14.0524V18.9274L25.4837 21.4187" fill="#2F406A"/>
<path id="Vector_23" d="M21.2013 19.0824V14.0161H21.3188L25.4438 16.4186L25.4788 16.5136V21.4274L21.1975 19.0874" fill="#2379BD"/>
<path id="Vector_24" d="M25.4125 11.5249L21.2013 14.0162L25.4825 16.5074L29.6938 14.0512L25.4125 11.5249Z" fill="#03AFEF"/>
<path id="Vector_25" d="M20.2413 24.5098L20.125 24.3848V19.6561L20.2413 19.5961L20.27 19.4798L24.3287 17.1123L24.4537 17.1398V22.0148L20.2425 24.5061" fill="#2F406A"/>
<path id="Vector_26" d="M15.96 22.17V17.105H16.0775L20.2025 19.5075L20.2375 19.6025V24.5162L15.9563 22.1762" fill="#2379BD"/>
<path id="Vector_27" d="M20.1712 14.6136L15.96 17.1048L20.2412 19.5961L24.4525 17.1398L20.1712 14.6123" fill="#03AFEF"/>
</g>
</svg>
