<svg width="41" height="40" viewBox="0 0 41 40" fill="none" xmlns="http://www.w3.org/2000/svg">
<g id="svg">
<path id="Vector" d="M11.3255 17.125C12.4922 12.4583 15.4088 10.125 20.0755 10.125C27.0755 10.125 27.9505 15.375 31.4505 16.25C33.7838 16.8333 35.8255 15.9583 37.5755 13.625C36.4088 18.2917 33.4922 20.625 28.8255 20.625C21.8255 20.625 20.9505 15.375 17.4505 14.5C15.1172 13.9167 13.0755 14.7917 11.3255 17.125ZM2.5755 27.625C3.74217 22.9583 6.65883 20.625 11.3255 20.625C18.3255 20.625 19.2005 25.875 22.7005 26.75C25.0338 27.3333 27.0755 26.4583 28.8255 24.125C27.6588 28.7917 24.7422 31.125 20.0755 31.125C13.0755 31.125 12.2005 25.875 8.7005 25C6.36717 24.4167 4.3255 25.2917 2.5755 27.625Z" fill="#44A8B3"/>
</g>
</svg>
