<svg width="40" height="37" viewBox="0 0 40 37" fill="none" xmlns="http://www.w3.org/2000/svg">
<g id="svg" clip-path="url(#clip0_52_377)">
<g id="Group">
<path id="Vector" d="M21.6609 5.03613C22.1422 5.03613 22.5339 5.42036 22.5458 5.89886L22.5461 5.92136V16.0534C22.5461 16.5348 22.1618 16.9264 21.6834 16.9384L21.6609 16.9387H13.399C12.9176 16.9387 12.526 16.5544 12.5141 16.0759L12.5138 16.0534V5.92136C12.5138 5.43998 12.898 5.04835 13.3765 5.03641L13.399 5.03613H21.6609ZM21.6609 5.42999H13.399C13.1334 5.42999 12.9169 5.6404 12.9072 5.90373L12.9069 5.92136V16.0534C12.9073 16.3192 13.1179 16.5356 13.3814 16.5452L13.399 16.5456H21.6609C21.9266 16.5452 22.143 16.3345 22.1526 16.0711L22.153 16.0534V5.92136C22.1526 5.64986 21.9324 5.42999 21.6609 5.42999ZM14.5791 14.4795V15.0692H13.9887V14.4795H14.5791ZM21.1695 14.4795V15.0692H14.8746V14.4795H21.1695ZM14.5791 11.9221V12.5118H13.9887V11.9221H14.5791ZM21.1695 11.9221V12.5118H14.8746V11.9221H21.1695ZM14.5791 9.46301V10.0527H13.9887V9.46301H14.5791ZM21.1695 9.46301V10.0527H14.8746V9.46301H21.1695ZM21.1695 7.20044V7.79084H13.9887V7.20044H21.1695Z" fill="#8E8F8F"/>
<path id="Vector_2" d="M21.6609 19.0032V19.0093C22.1399 19.0093 22.5305 19.3899 22.5456 19.866L22.5461 19.8884V30.0205C22.5461 30.5019 22.1618 30.8935 21.6834 30.9054L21.6609 30.9057H13.399C13.1642 30.9057 12.9391 30.8124 12.7731 30.6464C12.6134 30.4868 12.5211 30.2725 12.5142 30.0475L12.5138 30.0205V19.8884C12.5138 19.407 12.898 19.0154 13.3765 19.0035L13.399 19.0032H21.6609ZM21.6609 19.397H13.399C13.1334 19.397 12.9169 19.6074 12.9072 19.8708L12.9069 19.8884V30.0205C12.9073 30.2862 13.1179 30.5026 13.3814 30.5123L13.399 30.5126H21.6609C21.9254 30.5122 22.1413 30.3033 22.1525 30.0411L22.153 30.0235V19.8914C22.1526 19.6258 21.9418 19.4097 21.6785 19.4004L21.6609 19.4001V19.397ZM14.5791 28.4489V29.0393H13.9887V28.4489H14.5791ZM21.1695 28.4534V29.0347H14.8746V28.4534H21.1695ZM14.5791 25.8915V26.4819H13.9887V25.8915H14.5791ZM21.1695 25.896V26.4773H14.8746V25.896H21.1695ZM14.5791 23.4331V24.0227H13.9887V23.4331H14.5791ZM21.1695 23.4377V24.0182H14.8746V23.4377H21.1695ZM21.1695 21.1705V21.7609H13.9887V21.1705H21.1695Z" fill="#8E8F8F"/>
<path id="Vector_3" d="M24.0436 10.9875V11.4789H26.9941V24.843H24.0436V25.3351H26.9941H27.4862V24.843V11.4789V10.9875H26.9941H24.0436Z" fill="#8E8F8F"/>
<path id="Vector_4" d="M3.02058 2.31192C3.60238 1.35776 4.56073 0.801166 5.52885 0.477972L5.66089 0.435331L5.79285 0.395491C5.85877 0.376256 5.92458 0.358037 5.99017 0.340781L6.12101 0.307539C6.14275 0.302208 6.16446 0.29698 6.18613 0.291853L6.31568 0.262292C6.33719 0.257563 6.35864 0.252931 6.38005 0.248394L6.50784 0.222306L6.6342 0.198418L6.75893 0.176637L6.88181 0.15687L7.00265 0.139026L7.12123 0.123011L7.23735 0.108734L7.35079 0.0961009L7.46137 0.0850203L7.62138 0.0711072L7.77376 0.0601662L7.91782 0.0518851L8.07442 0.045169L8.21762 0.0411526L8.30511 0.0397299L8.38581 0.0391399H8.45942L8.55579 0.0403438L8.61021 0.0415112L8.70943 0.0448594L8.7532 0.0470616V2.40867C6.66442 2.20993 5.73241 2.84078 5.3214 3.51315L5.28437 3.57628C5.23106 3.67109 5.18767 3.76624 5.15241 3.85952L5.1301 3.92141C5.12657 3.93167 5.12314 3.9419 5.11981 3.9521L5.10089 4.0129L5.0841 4.07278L5.06931 4.13161C5.06701 4.14132 5.06478 4.15098 5.06263 4.16058L5.05063 4.21756C5.04878 4.22694 5.04699 4.23626 5.04528 4.24552L5.03581 4.30032L5.02788 4.35348L5.02137 4.40487L5.01401 4.4783L5.00921 4.54692L5.00685 4.60073L5.00578 4.65047L5.00578 4.69585L5.0066 4.73659L5.00801 4.77238L5.01072 4.81616L5.01576 4.8678L5.01569 5.73539L5.0106 7.50673L5.00442 8.7832L4.99719 9.85701L4.98928 10.7645L4.98158 11.479L4.97251 12.1745L4.96321 12.7675L4.95124 13.3959L4.94386 13.7232L4.93593 14.0324L4.92567 14.377L4.92206 14.4849L4.9217 14.6843L4.92062 14.8064L4.91927 14.8887L4.91599 15.0135L4.91108 15.134L4.9071 15.2075L4.90225 15.2813L4.89646 15.3553L4.88581 15.4667L4.87728 15.5411L4.86751 15.6155L4.85641 15.69C4.85444 15.7024 4.85242 15.7148 4.85034 15.7273L4.83709 15.8017C4.83475 15.8141 4.83236 15.8265 4.82989 15.8388L4.8143 15.9131L4.79705 15.9871L4.77805 16.061C4.77141 16.0855 4.76447 16.11 4.75721 16.1345L4.73445 16.2077L4.70969 16.2805L4.68284 16.3529C4.38037 17.1345 3.69545 17.8306 2.1445 18.153C3.65327 18.4663 4.34247 19.1327 4.6573 19.8875L4.68617 19.9596C4.71393 20.032 4.73843 20.1051 4.76004 20.1788L4.78071 20.2525C4.79386 20.3018 4.80579 20.3513 4.81661 20.4009L4.83203 20.4753C4.83446 20.4878 4.83683 20.5002 4.83913 20.5126L4.85221 20.5873L4.86383 20.662L4.87409 20.7367L4.88306 20.8113L4.89084 20.8858L4.89751 20.9602L4.90315 21.0344L4.90989 21.1452L4.91334 21.2187L4.91758 21.3417L4.91945 21.4231L4.92071 21.5037L4.92172 21.6233L4.92206 21.8219L4.93261 22.1677L4.94204 22.533L4.95073 22.9246L4.9587 23.3393L4.96716 23.8476L4.9787 24.6875L4.98666 25.3992L4.99056 25.7996L4.99893 26.8224L5.00799 28.3398L5.01424 29.9823L5.01652 29.9809V31.4375L5.01418 31.4581L5.01148 31.4891L5.00963 31.5169L5.00736 31.5687L5.00654 31.6094L5.00654 31.6548L5.00761 31.7045L5.00997 31.7583L5.0147 31.8261L5.01921 31.8739L5.02827 31.9491L5.03602 32.0015L5.04527 32.0555L5.05611 32.111C5.05806 32.1203 5.06008 32.1298 5.06218 32.1392L5.07564 32.1966C5.07804 32.2063 5.08052 32.216 5.08308 32.2257L5.09941 32.2847L5.1178 32.3446C5.12105 32.3547 5.12438 32.3648 5.1278 32.3749L5.14949 32.4359C5.1571 32.4564 5.1651 32.4769 5.1735 32.4975L5.19996 32.5595C5.528 33.295 6.39331 34.0895 8.63138 33.9074L8.75397 33.8966V36.2582L8.69124 36.2612L8.57499 36.2646L8.47935 36.2662H8.36578L8.28069 36.2653L8.18852 36.2635L8.08963 36.2607L7.9612 36.2556L7.8707 36.251L7.77651 36.2454L7.67883 36.2387L7.57784 36.2307L7.47373 36.2215L7.36669 36.2109L7.25691 36.1989L7.14458 36.1854L7.02989 36.1702C7.01059 36.1675 6.9912 36.1648 6.97172 36.1619L6.85385 36.1442C6.83404 36.1411 6.81415 36.1379 6.79419 36.1346L6.67355 36.114C6.65331 36.1104 6.633 36.1068 6.61262 36.103L6.48965 36.0795C6.46904 36.0754 6.44838 36.0712 6.42766 36.0669L6.30278 36.0402L6.17687 36.0113C6.13474 36.0013 6.09248 35.9909 6.05011 35.9801L5.92269 35.9465C4.75224 35.6273 3.52278 34.9968 2.89031 33.761C3.02744 32.2419 3.65212 30.9469 4.77427 30.1409C4.82709 30.1036 4.88058 30.0675 4.93476 30.0325L4.99591 29.9937C4.91996 30.0406 4.84532 30.0902 4.77198 30.1424C3.65212 30.9469 3.02744 32.2419 2.89031 33.7549C2.60876 33.1864 2.46126 32.5609 2.45912 31.9265L2.44505 31.2755L2.42677 30.4862L2.4039 29.5624L2.37276 28.3849L2.34417 27.3636L2.30479 26.0265L2.2604 24.5944L2.18617 22.3406L2.16811 21.8181C2.12419 20.635 1.6493 20.0587 1.15509 19.7805L1.09689 19.7491C1.08718 19.7441 1.07747 19.7392 1.06776 19.7344L1.00957 19.707C0.990196 19.6982 0.970854 19.6899 0.95157 19.682L0.893913 19.6594C0.874768 19.6522 0.855704 19.6454 0.836748 19.639L0.780224 19.6207C0.761506 19.615 0.74292 19.6096 0.72449 19.6045L0.680306 19.5929L0.636808 19.5824L0.594073 19.573L0.55218 19.5647L0.491087 19.5542L0.451637 19.5483L0.4133 19.5433L0.358051 19.5372L0.309393 19.537L0.209851 19.5358C0.159272 19.5352 0.107413 19.5348 0.0539753 19.5358L0 19.5372V16.7696C0.129508 16.7741 0.245303 16.7719 0.358051 16.7658L0.4133 16.7597L0.451637 16.7547L0.491087 16.7488L0.55218 16.7382L0.594073 16.7299L0.636808 16.7206L0.680306 16.7101L0.72449 16.6985L0.780224 16.6822L0.836748 16.664L0.893913 16.6436C1.46827 16.4288 2.11643 15.8768 2.16811 14.4849L2.23546 12.4834L2.2873 10.8484L2.31545 9.92047L2.35852 8.432L2.38678 7.39674L2.40725 6.60818L2.43302 5.55245L2.44796 4.89601L2.45912 4.37567C2.47626 3.55555 2.67838 2.88985 2.99928 2.34934L3.02073 2.31365L3.02058 2.31192ZM31.246 2.36982V0.00820926L31.3095 0.00517991L31.3977 0.00241078L31.4548 0.00125365L31.5558 0.000244141H31.6327L31.7171 0.00107859L31.8473 0.00376948L32.0132 0.00967295L32.1021 0.0139473L32.1947 0.0192147L32.3402 0.0291606L32.4412 0.037276L32.5453 0.0466768L32.6523 0.0574465L32.7619 0.0696684L32.8741 0.0834263L32.9885 0.0988034L33.1051 0.115883L33.2235 0.13475C33.2434 0.138048 33.2634 0.141423 33.2835 0.144879L33.4045 0.166581L33.527 0.190279L33.6508 0.216055L33.7756 0.243993L33.9014 0.274177C33.9645 0.289844 34.0279 0.306385 34.0914 0.323846L34.2186 0.360009C35.4076 0.709246 36.63 1.3901 37.2042 2.70807C37.4226 3.22322 37.5371 3.7765 37.5409 4.33606L37.5549 4.98726L37.5732 5.77662L37.5861 6.30477L37.6063 7.09528L37.6343 8.1364L37.6558 8.89952L37.6952 10.2367L37.7396 11.669L37.8138 13.9227L37.8319 14.4453C37.8765 15.6481 38.3666 16.2234 38.8696 16.4962L38.9277 16.5263C38.9373 16.5312 38.947 16.5359 38.9567 16.5405L39.0146 16.5668L39.0724 16.5907C39.0819 16.5945 39.0915 16.5982 39.1011 16.6018L39.1581 16.6223C39.1676 16.6256 39.177 16.6287 39.1864 16.6318L39.2425 16.6492C39.2517 16.6519 39.261 16.6545 39.2702 16.6571L39.3524 16.6782L39.4059 16.6901L39.4582 16.7004L39.5089 16.7091L39.5484 16.715L39.5867 16.72L39.6419 16.7261C39.7386 16.7314 39.8391 16.7338 39.946 16.7315L40 16.73V19.4984C39.8705 19.4938 39.7547 19.4961 39.6419 19.5022L39.6054 19.506L39.5677 19.5106L39.5089 19.5191L39.4478 19.5297L39.4059 19.538L39.3632 19.5473L39.3197 19.5578L39.2755 19.5695L39.2477 19.5773L39.1916 19.5946C39.1822 19.5976 39.1727 19.6007 39.1633 19.6039L39.1061 19.6243C39.0965 19.6279 39.0869 19.6316 39.0773 19.6353L39.0195 19.6591C38.4684 19.8964 37.881 20.4607 37.8319 21.783L37.7645 23.7835L37.7127 25.4186L37.6845 26.3466L37.6415 27.8352L37.6132 28.8706L37.5927 29.6592L37.567 30.7149L37.552 31.3712L37.5409 31.8915C37.5365 32.3783 37.4501 32.8607 37.2853 33.3184L37.2656 33.3721L37.2666 33.377C36.6777 34.8982 35.2532 35.6133 33.9378 35.9462L33.8088 35.9777C33.7874 35.9827 33.766 35.9877 33.7447 35.9925L33.6171 36.0205C33.5959 36.025 33.5748 36.0294 33.5538 36.0337L33.4281 36.0584C33.4072 36.0623 33.3865 36.0661 33.3658 36.0699L33.2424 36.0914C33.222 36.0949 33.2017 36.0982 33.1814 36.1015L33.0609 36.1201L32.9424 36.1368L32.8262 36.1519L32.7126 36.1652L32.6016 36.177L32.4935 36.1873L32.3373 36.2002L32.2374 36.2073L32.0944 36.2156L31.9601 36.2216L31.7958 36.2266L31.7024 36.2282L31.6166 36.2289H31.5388L31.4693 36.228L31.4085 36.2269L31.3347 36.2248L31.2705 36.2221L31.2483 36.2209V33.8593C33.435 34.0673 34.354 33.3662 34.7346 32.66L34.7672 32.5968C34.7776 32.5758 34.7876 32.5547 34.7971 32.5337L34.8244 32.4709C34.833 32.45 34.8413 32.4291 34.8491 32.4084L34.8714 32.3465L34.8914 32.2853C34.8946 32.2752 34.8977 32.2651 34.9006 32.255L34.9174 32.1952L34.9322 32.1363L34.9451 32.0787L34.9562 32.0224L34.9657 31.9676L34.9736 31.9145L34.9802 31.8631L34.9875 31.7896L34.991 31.7433L34.9947 31.6672L34.9957 31.6175L34.9957 31.5721L34.9949 31.5313L34.9935 31.4956L34.9917 31.465L34.9881 31.4208L34.9858 31.4001V30.1051L34.9894 28.8992L34.9954 27.6551L35.0023 26.6064L35.0115 25.536L35.0222 24.5753L35.0297 24.0167L35.0367 23.5668L35.046 23.0509L35.0527 22.7243L35.0599 22.4136L35.0676 22.1207L35.0779 21.7823L35.0783 21.5837L35.0794 21.4629L35.0807 21.3814L35.0826 21.2992L35.087 21.1748L35.0911 21.0913L35.0956 21.0169L35.101 20.9423L35.1075 20.8675L35.115 20.7926L35.1238 20.7175L35.1338 20.6423C35.1356 20.6298 35.1374 20.6173 35.1393 20.6047L35.1514 20.5296L35.165 20.4545L35.1801 20.3795L35.197 20.3047C35.2176 20.2175 35.2418 20.1308 35.2702 20.0449L35.2956 19.9715C35.3309 19.8739 35.3719 19.7776 35.4195 19.683L35.4565 19.6123C35.8135 18.9564 36.5073 18.3936 37.8555 18.1134C36.1551 17.7604 35.4957 16.9591 35.24 16.0882L35.2193 16.0144C35.2061 15.9651 35.1942 15.9157 35.1834 15.8661L35.168 15.7916C35.1655 15.7792 35.1632 15.7668 35.1609 15.7544L35.1478 15.6797L35.1362 15.6051L35.1259 15.5304L35.1169 15.4558L35.1092 15.3812L35.1025 15.3069L35.0968 15.2327L35.0901 15.1219L35.0867 15.0485L35.0824 14.9254L35.0805 14.8441L35.0793 14.7634L35.0783 14.6438L35.0779 14.4453L35.0707 14.2145L35.0626 13.9211L35.0536 13.5435L35.0452 13.1413L35.0376 12.7179L35.0285 12.1262L35.0177 11.2753L35.0096 10.4801L35.002 9.55889L34.9922 7.92096L34.9858 6.14612C35.1201 6.07193 35.2503 5.99055 35.3758 5.90234C36.0015 5.45403 36.4726 4.85003 36.7902 4.13948L36.8121 4.08973C36.4941 4.82193 36.0152 5.44388 35.3735 5.9031C35.2689 5.97661 35.1611 6.04538 35.0503 6.10919L34.9835 6.14688V4.82895L34.9858 4.80832L34.9885 4.77731L34.9904 4.74948L34.9926 4.69774L34.9935 4.657L34.9935 4.61162L34.9924 4.56187L34.99 4.50807L34.9871 4.46346L34.9808 4.39256L34.9717 4.31727L34.964 4.26488L34.9547 4.21089L34.9439 4.15543C34.9419 4.14607 34.9399 4.13666 34.9378 4.1272L34.9244 4.06981C34.922 4.06015 34.9195 4.05044 34.9169 4.04069L34.9006 3.98168L34.8822 3.92177C34.879 3.91171 34.8756 3.90163 34.8722 3.89151L34.8505 3.8305C34.8429 3.81006 34.8349 3.78953 34.8265 3.76893L34.8 3.70694C34.472 2.97144 33.6067 2.17691 31.3686 2.359L31.246 2.36982Z" fill="#FE0902"/>
<path id="Vector_5" d="M4.8702 5.63931C4.89382 5.65645 4.91801 5.67264 4.94239 5.68845L5.01571 5.7353V4.8676L5.01337 4.84697L5.01067 4.81596L5.00881 4.78813L5.00655 4.73639L5.00573 4.69565L5.00573 4.65027L5.0068 4.60053L5.00916 4.54672L5.0121 4.50153L5.01611 4.45413L5.02131 4.40467L5.02782 4.35328L5.03576 4.30012L5.04523 4.24532L5.05636 4.18904C5.05836 4.17954 5.06043 4.16999 5.06258 4.16038L5.07641 4.10214L5.09219 4.04276C5.09499 4.03278 5.09787 4.02276 5.10084 4.0127L5.11976 3.95191C5.12309 3.9417 5.12652 3.93147 5.13005 3.92121L5.15236 3.85932C5.18762 3.76604 5.23101 3.67089 5.28432 3.57608L5.32135 3.51295C5.73236 2.84058 6.66437 2.20973 8.75315 2.40848V0.0468623L8.70938 0.0446602L8.63429 0.0419692L8.58396 0.0406976L8.45937 0.0390364L8.38576 0.0389407L8.30506 0.0395307L8.1714 0.0420227L8.04917 0.0458882L7.91777 0.0516858L7.77371 0.059967L7.62133 0.070908L7.51546 0.0798338L7.35074 0.0959017L7.2373 0.108534L7.12118 0.122812L7.0026 0.138827L6.88176 0.156671L6.75888 0.176437L6.63415 0.198219L6.50779 0.222107L6.38 0.248195C6.35859 0.252731 6.33714 0.257363 6.31563 0.262093L6.18608 0.291654C6.16441 0.29678 6.1427 0.302009 6.12096 0.30734L5.99012 0.340582C5.92453 0.357838 5.85872 0.376057 5.7928 0.395292L5.66084 0.435132L5.5288 0.477772C4.56068 0.800966 3.60233 1.35756 3.02053 2.31173C3.2087 3.70508 3.82272 4.89274 4.8702 5.63931ZM8.75391 36.258V33.8964C6.46931 34.1138 5.56853 33.3387 5.21972 32.6024L5.19116 32.5394C5.17753 32.5079 5.16488 32.4766 5.15313 32.4455L5.13081 32.3837C5.12728 32.3734 5.12385 32.3632 5.12052 32.353L5.1016 32.2922L5.08481 32.2323L5.07002 32.1735L5.05712 32.1158L5.04599 32.0595L5.03652 32.0047L5.02859 31.9516L5.02208 31.9002L5.01472 31.8268L5.00992 31.7581L5.00756 31.7043L5.00649 31.6546L5.00649 31.6092L5.00731 31.5685L5.00872 31.5327L5.01049 31.5021L5.01413 31.4579L5.01647 31.4359V29.9807C4.9342 30.0315 4.85344 30.0848 4.77422 30.1407C3.65207 30.9467 3.02738 32.2417 2.89026 33.7608C3.52273 34.9966 4.75219 35.6271 5.92264 35.9463L6.05005 35.9799C6.09243 35.9907 6.13469 36.0011 6.17682 36.0111L6.30273 36.04L6.42761 36.0667L6.55126 36.0913C6.57176 36.0952 6.5922 36.0991 6.61257 36.1028L6.73403 36.1244C6.75414 36.1278 6.77418 36.1311 6.79414 36.1344L6.91298 36.1531C6.93263 36.156 6.95219 36.1589 6.97167 36.1617L7.08747 36.1778C7.10659 36.1803 7.12561 36.1828 7.14453 36.1852L7.25686 36.1987L7.36664 36.2107L7.47368 36.2213L7.57778 36.2305L7.67878 36.2384L7.77646 36.2452L7.87065 36.2508L8.00496 36.2573L8.08958 36.2605L8.18847 36.2633L8.28064 36.2651L8.36573 36.2659L8.4793 36.2658L8.57494 36.2644L8.65143 36.2624L8.75391 36.258ZM37.2041 2.70787C36.5934 1.306 35.2493 0.624948 33.9921 0.29707L33.8667 0.265446L33.742 0.236094C33.7213 0.231387 33.7007 0.226771 33.6801 0.222245L33.5569 0.19615C33.5365 0.191975 33.5161 0.187887 33.4958 0.183883L33.3745 0.16086L33.2547 0.139782L33.1366 0.120569L33.0204 0.103139L32.9062 0.0874098L32.7942 0.0732997L32.6846 0.060727L32.5776 0.0496102L32.4733 0.0398675L32.3226 0.0276512L32.179 0.0180672L32.0434 0.0108397L31.9162 0.00569293L31.8364 0.00328159L31.7403 0.00123294L31.6516 0.000196462L31.5706 0L31.4976 0.000471396L31.4332 0.00143849L31.3532 0.00344199L31.2945 0.00559242L31.246 0.00801001V2.36962C33.5306 2.15224 34.4314 2.92731 34.7802 3.66365L34.8087 3.72665C34.8224 3.75807 34.835 3.78937 34.8468 3.82047L34.8691 3.88236C34.8726 3.89262 34.876 3.90285 34.8794 3.91305L34.8983 3.97385L34.9151 4.03373L34.9299 4.09256L34.9428 4.15019L34.9539 4.20647L34.9634 4.26127L34.9713 4.31443L34.9778 4.36582L34.9852 4.43925L34.99 4.50787L34.9923 4.56168L34.9934 4.61142V4.6568L34.9926 4.69754L34.9912 4.73333L34.9885 4.77711L34.9834 4.8291V6.14668C35.1177 6.07249 35.2479 5.99112 35.3735 5.9029C36.389 5.17613 36.9969 4.0418 37.2041 2.70787ZM35.474 30.4043C35.3183 30.2934 35.1551 30.1934 34.9857 30.1049V31.3999L34.988 31.4206L34.9908 31.4516L34.9926 31.4794L34.9949 31.5312L34.9957 31.5719L34.9957 31.6173L34.9946 31.667L34.9909 31.7431L34.9875 31.7894L34.9801 31.8629L34.9736 31.9143L34.9657 31.9674L34.9562 32.0222L34.9451 32.0785L34.9322 32.1361L34.9174 32.195L34.9006 32.2548C34.8976 32.2649 34.8945 32.275 34.8914 32.2851L34.8714 32.3463L34.8491 32.4082C34.8412 32.4289 34.833 32.4498 34.8243 32.4707L34.7971 32.5335C34.7876 32.5545 34.7776 32.5756 34.7672 32.5966L34.7345 32.6598C34.3539 33.366 33.435 34.0671 31.2483 33.8591V36.2207L31.2832 36.2225L31.3839 36.2261L31.5075 36.2283L31.5825 36.2287L31.7106 36.2279L31.8056 36.2262L31.908 36.2233L32.0347 36.2183L32.1701 36.2112L32.2648 36.2052L32.413 36.1941L32.5158 36.1851L32.6214 36.1748L32.7297 36.1631L32.8406 36.1499L32.9538 36.1351L33.0691 36.1186L33.1864 36.1004C33.2061 36.0973 33.2259 36.094 33.2458 36.0907L33.3657 36.0697L33.4872 36.0468C33.5076 36.0428 33.528 36.0387 33.5484 36.0346L33.6718 36.0086C33.6925 36.0041 33.7132 35.9995 33.7339 35.9948L33.8588 35.9655C35.1957 35.6414 36.6659 34.9285 37.2666 33.3768C37.0289 32.1374 36.4301 31.0891 35.474 30.4043Z" fill="#FFAB00"/>
</g>
</g>
<defs>
<clipPath id="clip0_52_377">
<rect width="40" height="36.4062" fill="white"/>
</clipPath>
</defs>
</svg>
